HIERARCHY
ROOT Hips
{
	OFFSET 0.000000 71.427986 0.000000
	CHANNELS 6 Xposition Yposition Zposition Xrotation Yrotation Zrotation
	JOINT Pelvis
	{
		OFFSET 0.000000 0.000000 0.000000
		CHANNELS 3 Xrotation Yrotation Zrotation
		JOINT LeftUpLeg
		{
			OFFSET 6.797100 -2.508499 -1.318700
			CHANNELS 3 Xrotation Yrotation Zrotation
			JOINT LeftLeg
			{
				OFFSET 0.069008 -29.241863 0.690200
				CHANNELS 3 Xrotation Yrotation Zrotation
				JOINT LeftFoot
				{
					OFFSET -0.069008 -29.568123 -0.266800
					CHANNELS 3 Xrotation Yrotation Zrotation
					JOINT LeftToeBase
					{
						OFFSET 3.145500 -8.631000 16.059900
						CHANNELS 3 Xrotation Yrotation Zrotation
						End Site
						{
							OFFSET 0.000000 18.501587 0.000000
						}
					}
				}
			}
			JOINT Left_ShortSleeve
			{
				OFFSET 0.265923 -10.480953 1.153800
				CHANNELS 3 Xrotation Yrotation Zrotation
				End Site
				{
					OFFSET 1.725763 19.823879 0.000000
				}
			}
		}
		JOINT RightUpLeg
		{
			OFFSET -6.797100 -2.508499 -1.318700
			CHANNELS 3 Xrotation Yrotation Zrotation
			JOINT RightLeg
			{
				OFFSET -0.082453 -29.241932 0.688000
				CHANNELS 3 Xrotation Yrotation Zrotation
				JOINT RightFoot
				{
					OFFSET 0.082453 -29.568058 -0.264600
					CHANNELS 3 Xrotation Yrotation Zrotation
					JOINT RightToeBase
					{
						OFFSET -3.115300 -8.682800 16.113400
						CHANNELS 3 Xrotation Yrotation Zrotation
						End Site
						{
							OFFSET 0.000000 18.567114 0.000000
						}
					}
				}
			}
			JOINT Right_ShortSleeve
			{
				OFFSET -0.265923 -10.480953 1.153800
				CHANNELS 3 Xrotation Yrotation Zrotation
				End Site
				{
					OFFSET -1.725766 19.823910 0.000000
				}
			}
		}
	}
	JOINT Spine
	{
		OFFSET 0.000000 13.368103 0.470500
		CHANNELS 3 Xrotation Yrotation Zrotation
		JOINT Spine1
		{
			OFFSET 0.147000 13.837402 0.538800
			CHANNELS 3 Xrotation Yrotation Zrotation
			JOINT Spine2
			{
				OFFSET 0.168000 16.242897 -1.435500
				CHANNELS 3 Xrotation Yrotation Zrotation
				JOINT Neck
				{
					OFFSET 0.217200 18.631500 -1.679100
					CHANNELS 3 Xrotation Yrotation Zrotation
					JOINT Head
					{
						OFFSET 0.000000 6.599396 1.385900
						CHANNELS 3 Xrotation Yrotation Zrotation
						JOINT Hat
						{
							OFFSET -0.532200 27.220596 -10.096100
							CHANNELS 3 Xrotation Yrotation Zrotation
							End Site
							{
								OFFSET 0.000000 22.029861 0.000000
							}
						}
						JOINT HairD
						{
							OFFSET -10.777400 17.437393 -1.325900
							CHANNELS 3 Xrotation Yrotation Zrotation
							JOINT HairD1
							{
								OFFSET -3.290299 -11.051193 1.062200
								CHANNELS 3 Xrotation Yrotation Zrotation
								End Site
								{
									OFFSET 0.000000 11.579437 0.000000
								}
							}
						}
						JOINT HairB
						{
							OFFSET -10.777400 17.437393 1.467900
							CHANNELS 3 Xrotation Yrotation Zrotation
							JOINT HairB1
							{
								OFFSET -1.561200 -12.956299 3.590200
								CHANNELS 3 Xrotation Yrotation Zrotation
								End Site
								{
									OFFSET 0.000000 13.534866 0.000000
								}
							}
						}
						JOINT HairA
						{
							OFFSET 9.713100 17.437393 1.467900
							CHANNELS 3 Xrotation Yrotation Zrotation
							JOINT HairA1
							{
								OFFSET 1.561200 -12.956299 3.590200
								CHANNELS 3 Xrotation Yrotation Zrotation
								End Site
								{
									OFFSET 0.000000 13.534866 0.000000
								}
							}
						}
						JOINT HairC
						{
							OFFSET 9.713100 17.437393 -1.325900
							CHANNELS 3 Xrotation Yrotation Zrotation
							JOINT HairC1
							{
								OFFSET 3.290300 -11.051193 1.062200
								CHANNELS 3 Xrotation Yrotation Zrotation
								End Site
								{
									OFFSET 0.000000 11.579437 0.000000
								}
							}
						}
					}
				}
				JOINT LeftShoulder
				{
					OFFSET 5.101800 15.108002 -2.763700
					CHANNELS 3 Xrotation Yrotation Zrotation
					JOINT LeftArm
					{
						OFFSET 9.825497 2.506317 -1.597400
						CHANNELS 3 Xrotation Yrotation Zrotation
						JOINT LeftForeArm
						{
							OFFSET 21.966244 0.000000 0.000000
							CHANNELS 3 Xrotation Yrotation Zrotation
							JOINT LeftHand
							{
								OFFSET 33.879036 0.000000 0.000000
								CHANNELS 3 Xrotation Yrotation Zrotation
								JOINT LeftHandThumb1
								{
									OFFSET 6.715286 -2.359680 3.363841
									CHANNELS 3 Xrotation Yrotation Zrotation
									JOINT LeftHandThumb2
									{
										OFFSET 2.507072 -1.447464 1.447461
										CHANNELS 3 Xrotation Yrotation Zrotation
										JOINT LeftHandThumb3
										{
											OFFSET 2.898338 -1.673355 1.673357
											CHANNELS 3 Xrotation Yrotation Zrotation
											End Site
											{
												OFFSET -0.295959 3.727692 -0.131651
											}
										}
									}
								}
								JOINT LeftHandIndex1
								{
									OFFSET 14.190811 -0.254547 3.840278
									CHANNELS 3 Xrotation Yrotation Zrotation
									JOINT LeftHandIndex2
									{
										OFFSET 3.551727 0.000000 -0.000000
										CHANNELS 3 Xrotation Yrotation Zrotation
										JOINT LeftHandIndex3
										{
											OFFSET 2.894196 0.000000 0.000000
											CHANNELS 3 Xrotation Yrotation Zrotation
											End Site
											{
												OFFSET -1.000603 2.690872 0.366626
											}
										}
									}
								}
								JOINT LeftHandMiddle1
								{
									OFFSET 13.776489 0.000000 0.000000
									CHANNELS 3 Xrotation Yrotation Zrotation
									JOINT LeftHandMiddle2
									{
										OFFSET 3.438232 0.000000 0.000000
										CHANNELS 3 Xrotation Yrotation Zrotation
										JOINT LeftHandMiddle3
										{
											OFFSET 3.691551 0.000000 0.000000
											CHANNELS 3 Xrotation Yrotation Zrotation
											End Site
											{
												OFFSET -1.082298 3.499527 0.457670
											}
										}
									}
								}
								JOINT LeftHandRing1
								{
									OFFSET 13.966164 -0.268127 -3.067488
									CHANNELS 3 Xrotation Yrotation Zrotation
									JOINT LeftHandRing2
									{
										OFFSET 3.162567 0.000000 0.000000
										CHANNELS 3 Xrotation Yrotation Zrotation
										JOINT LeftHandRing3
										{
											OFFSET 3.324348 0.000000 0.000000
											CHANNELS 3 Xrotation Yrotation Zrotation
											End Site
											{
												OFFSET -0.861900 3.184998 0.405154
											}
										}
									}
								}
								JOINT LeftHandPinky1
								{
									OFFSET 13.131393 -0.168503 -5.746925
									CHANNELS 3 Xrotation Yrotation Zrotation
									JOINT LeftHandPinky2
									{
										OFFSET 2.849182 0.000000 0.000000
										CHANNELS 3 Xrotation Yrotation Zrotation
										JOINT LeftHandPinky3
										{
											OFFSET 2.805038 0.000000 0.000000
											CHANNELS 3 Xrotation Yrotation Zrotation
											End Site
											{
												OFFSET -0.882500 2.642609 0.325652
											}
										}
									}
								}
							}
							JOINT Left_Sleeve
							{
								OFFSET 6.592125 -0.646545 0.805568
								CHANNELS 3 Xrotation Yrotation Zrotation
								End Site
								{
									OFFSET -0.000179 20.275787 -0.000000
								}
							}
						}
					}
				}
				JOINT RightShoulder
				{
					OFFSET -5.731700 15.108002 -2.763700
					CHANNELS 3 Xrotation Yrotation Zrotation
					JOINT RightArm
					{
						OFFSET -9.825497 2.506317 -1.597400
						CHANNELS 3 Xrotation Yrotation Zrotation
						JOINT RightForeArm
						{
							OFFSET -21.966242 0.000000 0.000000
							CHANNELS 3 Xrotation Yrotation Zrotation
							JOINT RightHand
							{
								OFFSET -33.879032 0.000000 0.000000
								CHANNELS 3 Xrotation Yrotation Zrotation
								JOINT RightHandThumb1
								{
									OFFSET -6.715286 -2.359680 3.363841
									CHANNELS 3 Xrotation Yrotation Zrotation
									JOINT RightHandThumb2
									{
										OFFSET -2.507072 -1.447464 1.447461
										CHANNELS 3 Xrotation Yrotation Zrotation
										JOINT RightHandThumb3
										{
											OFFSET -2.898338 -1.673355 1.673357
											CHANNELS 3 Xrotation Yrotation Zrotation
											End Site
											{
												OFFSET 0.295959 3.727692 -0.131651
											}
										}
									}
								}
								JOINT RightHandIndex1
								{
									OFFSET -14.190811 -0.254547 3.840278
									CHANNELS 3 Xrotation Yrotation Zrotation
									JOINT RightHandIndex2
									{
										OFFSET -3.551727 0.000000 -0.000000
										CHANNELS 3 Xrotation Yrotation Zrotation
										JOINT RightHandIndex3
										{
											OFFSET -2.894196 0.000000 0.000000
											CHANNELS 3 Xrotation Yrotation Zrotation
											End Site
											{
												OFFSET 1.000603 2.690872 0.366626
											}
										}
									}
								}
								JOINT RightHandMiddle1
								{
									OFFSET -13.776489 0.000000 0.000000
									CHANNELS 3 Xrotation Yrotation Zrotation
									JOINT RightHandMiddle2
									{
										OFFSET -3.438232 0.000000 0.000000
										CHANNELS 3 Xrotation Yrotation Zrotation
										JOINT RightHandMiddle3
										{
											OFFSET -3.691551 0.000000 0.000000
											CHANNELS 3 Xrotation Yrotation Zrotation
											End Site
											{
												OFFSET 1.082298 3.499527 0.457670
											}
										}
									}
								}
								JOINT RightHandRing1
								{
									OFFSET -13.966164 -0.268127 -3.067488
									CHANNELS 3 Xrotation Yrotation Zrotation
									JOINT RightHandRing2
									{
										OFFSET -3.162567 0.000000 0.000000
										CHANNELS 3 Xrotation Yrotation Zrotation
										JOINT RightHandRing3
										{
											OFFSET -3.324348 0.000000 0.000000
											CHANNELS 3 Xrotation Yrotation Zrotation
											End Site
											{
												OFFSET 0.861900 3.184998 0.405154
											}
										}
									}
								}
								JOINT RightHandPinky1
								{
									OFFSET -13.131393 -0.168503 -5.746925
									CHANNELS 3 Xrotation Yrotation Zrotation
									JOINT RightHandPinky2
									{
										OFFSET -2.849182 0.000000 0.000000
										CHANNELS 3 Xrotation Yrotation Zrotation
										JOINT RightHandPinky3
										{
											OFFSET -2.805038 0.000000 0.000000
											CHANNELS 3 Xrotation Yrotation Zrotation
											End Site
											{
												OFFSET 0.882500 2.642609 0.325652
											}
										}
									}
								}
							}
							JOINT Right_Sleeve
							{
								OFFSET -6.592125 -0.646545 0.805568
								CHANNELS 3 Xrotation Yrotation Zrotation
								End Site
								{
									OFFSET 0.000179 20.275787 -0.000000
								}
							}
						}
					}
				}
				JOINT Bind_Right_JacketString
				{
					OFFSET -3.534800 11.969597 7.200700
					CHANNELS 3 Xrotation Yrotation Zrotation
					JOINT Bind_Right_JacketString1
					{
						OFFSET -0.319900 -6.102600 2.794100
						CHANNELS 3 Xrotation Yrotation Zrotation
						End Site
						{
							OFFSET 0.000000 6.719452 0.000000
						}
					}
				}
				JOINT Bind_Left_JacketString
				{
					OFFSET 2.904800 11.969597 7.200700
					CHANNELS 3 Xrotation Yrotation Zrotation
					JOINT Bind_Left_JacketString1
					{
						OFFSET 0.364800 -5.904503 3.186800
						CHANNELS 3 Xrotation Yrotation Zrotation
						End Site
						{
							OFFSET 0.000000 6.719513 0.000000
						}
					}
				}
				JOINT HairE
				{
					OFFSET 5.915200 17.612701 -11.592200
					CHANNELS 3 Xrotation Yrotation Zrotation
					JOINT HairE1
					{
						OFFSET 0.289200 -7.171898 -1.284500
						CHANNELS 3 Xrotation Yrotation Zrotation
						End Site
						{
							OFFSET 0.000000 7.291756 0.000000
						}
					}
				}
				JOINT HairF
				{
					OFFSET -0.864800 17.612701 -11.592200
					CHANNELS 3 Xrotation Yrotation Zrotation
					JOINT HairF1
					{
						OFFSET 0.000000 -14.087097 -2.127501
						CHANNELS 3 Xrotation Yrotation Zrotation
						End Site
						{
							OFFSET 0.000000 14.246841 0.000000
						}
					}
				}
				JOINT HairG
				{
					OFFSET -8.087700 17.612701 -11.592200
					CHANNELS 3 Xrotation Yrotation Zrotation
					JOINT HairG1
					{
						OFFSET -0.293600 -6.081398 -0.910100
						CHANNELS 3 Xrotation Yrotation Zrotation
						End Site
						{
							OFFSET 0.000000 6.156120 0.000000
						}
					}
				}
			}
		}
	}
	JOINT Pouch
	{
		OFFSET 0.000000 4.394501 10.847300
		CHANNELS 3 Xrotation Yrotation Zrotation
		End Site
		{
			OFFSET 0.000000 21.880577 0.000000
		}
	}
	JOINT Bag
	{
		OFFSET -13.229000 4.813004 -0.593300
		CHANNELS 3 Xrotation Yrotation Zrotation
		End Site
		{
			OFFSET 0.000000 21.880577 0.000000
		}
	}
	JOINT OccupyGuyFacialAnim_Joint
	{
		OFFSET 1.000000 -70.206398 -1.655000
		CHANNELS 3 Xrotation Yrotation Zrotation
		End Site
		{
			OFFSET 0.000000 21.880577 0.000000
		}
	}
}
MOTION
Frames: 4
Frame Time: 0.033333
-1.410862 69.640068 7.030764 -4.526170 1.014378 -0.552066 -0.000000 0.000000 -0.000000 -2.904721 14.386163 6.386229 24.924711 -9.482830 0.746217 -18.245747 0.373844 -1.648507 0.000000 -0.000000 0.000000 -0.000000 0.000001 0.000000 -2.125623 -7.267233 -3.840941 23.794243 -2.011400 -0.830847 -16.911364 -0.923472 4.985401 -0.000000 -0.000000 -0.000000 -0.000000 0.000000 -0.000000 2.263528 -1.778063 -1.141896 2.344808 -0.249413 -0.250860 2.344447 -0.245869 -0.257566 2.152325 -0.632268 2.749371 -10.160115 -0.404546 0.439213 -0.000000 -0.000000 0.000000 -0.000000 -0.000000 0.000000 -0.000000 -0.000000 0.000000 -0.000000 -0.000000 0.000000 -0.000000 -0.000000 0.000000 -0.000000 -0.000000 0.000000 -0.000000 -0.000000 0.000000 -0.000000 -0.000000 0.000000 -0.000000 -0.000000 0.000000 0.604699 0.071357 -10.202324 4.438377 -12.004512 -66.090905 -0.000008 -31.876220 -0.000018 3.286515 13.589979 -11.148984 0.941381 13.697798 -16.466509 -5.132649 2.945049 23.175351 -0.000001 -0.000000 0.000001 -0.939866 -0.059699 -28.096374 1.124028 3.775417 -33.148476 0.000002 -0.000001 -0.000002 0.558000 2.734100 -25.592985 1.877598 4.729865 -43.283769 0.000002 0.000001 -0.000003 2.727769 6.691376 -28.874925 0.894428 3.398754 -29.479896 0.000000 0.000003 -0.000003 4.544372 8.808957 -33.871041 0.570746 -1.323100 -23.798677 -0.000000 0.000001 0.000003 0.000002 -0.000002 0.000000 0.573602 3.027075 5.683505 5.472744 13.129327 70.859961 -0.000004 21.591437 0.000029 12.927469 2.018350 16.841706 9.739655 -5.949229 2.829516 -10.406720 -23.986721 -5.869242 -0.000004 0.000000 0.000001 -2.402554 6.483047 18.226988 0.348881 -2.178898 18.191978 -0.000000 0.000001 0.000002 -0.591240 0.517217 19.375416 0.996691 -3.592141 31.005825 -0.000000 0.000000 -0.000001 1.474051 -5.375577 19.218540 1.278877 -4.023597 35.253045 0.000004 -0.000004 -0.000002 1.000984 -3.642648 26.752598 0.622614 -2.880647 24.387148 -0.000004 0.000001 0.000001 0.000001 0.000001 -0.000001 0.000000 0.000000 0.000000 0.000000 0.000000 0.000000 0.000000 0.000000 0.000000 0.000000 0.000000 0.000000 0.000000 0.000000 0.000000 0.000000 0.000000 0.000000 0.000000 0.000000 0.000000 0.000000 0.000000 0.000000 0.000000 0.000000 0.000000 0.000000 0.000000 0.000000 -0.000000 0.000000 -0.000000 -0.000000 0.000000 -0.000000 -0.000000 0.000000 -0.000000 
-1.411624 69.641899 7.008035 -4.536663 0.998382 -0.558961 -0.000000 0.000000 0.000000 -2.919680 14.390459 6.396612 24.932393 -9.480133 0.741996 -18.230190 0.373161 -1.645407 0.000000 -0.000000 -0.000000 -0.000000 -0.000001 -0.000000 -2.138666 -7.260885 -3.833852 23.794361 -2.005569 -0.830937 -16.888073 -0.921477 4.979363 -0.000000 -0.000001 0.000000 0.000000 -0.000000 -0.000000 2.251730 -1.767670 -1.133758 2.345387 -0.248057 -0.255792 2.345010 -0.244559 -0.262465 2.300402 -0.630981 2.709598 -9.386813 -0.446865 0.518417 -0.000001 -0.000000 0.000000 -0.000001 -0.000000 0.000000 -0.000001 -0.000000 0.000000 -0.000001 -0.000000 -0.000000 -0.000000 -0.000000 -0.000000 -0.000001 -0.000000 -0.000000 -0.000000 -0.000000 -0.000000 -0.000001 -0.000000 0.000000 -0.000001 -0.000000 0.000000 0.605938 0.075705 -10.241673 4.490566 -12.054365 -66.022282 -0.000001 -31.958332 -0.000007 3.286519 13.589980 -11.149000 0.969970 13.688905 -16.489825 -5.135852 2.945444 23.179782 -0.000001 -0.000000 -0.000001 -0.936776 -0.052509 -28.105407 1.121341 3.771298 -33.107501 -0.000000 0.000000 -0.000000 0.556344 2.730567 -25.584118 1.877604 4.729873 -43.283913 0.000000 -0.000001 0.000004 2.729294 6.693921 -28.876271 0.894556 3.399000 -29.482293 0.000001 0.000000 -0.000003 4.539825 8.799102 -33.888738 0.570834 -1.322895 -23.800474 -0.000005 -0.000003 -0.000001 0.000000 0.000002 -0.000000 0.574672 3.062068 5.640354 5.442929 13.090616 70.921570 -0.000009 21.555288 0.000024 12.952282 2.027587 16.848082 9.736955 -5.939849 2.838667 -10.413786 -23.988693 -5.876096 0.000002 -0.000001 0.000000 -2.397811 6.470926 18.220558 0.348953 -2.179067 18.193548 -0.000002 0.000001 0.000002 -0.590288 0.513866 19.379086 0.997006 -3.592677 31.010978 0.000001 -0.000003 -0.000005 1.474031 -5.372551 19.236244 1.278969 -4.023721 35.254421 0.000004 -0.000000 -0.000001 0.989948 -3.621022 26.744673 0.623131 -2.881809 24.397719 -0.000003 0.000001 0.000001 0.000003 -0.000003 -0.000001 -0.000000 0.000000 -0.000000 -0.000000 0.000000 -0.000000 -0.000000 0.000000 -0.000000 -0.000000 0.000000 -0.000000 -0.000000 0.000000 -0.000000 -0.000000 0.000000 -0.000000 -0.000000 0.000000 -0.000000 -0.000000 0.000000 -0.000000 -0.000000 0.000000 -0.000000 -0.000000 0.000000 -0.000000 -0.000000 0.000000 0.000000 -0.000000 0.000000 0.000000 -0.000000 0.000000 0.000000 
-1.410394 69.642014 6.986216 -4.562460 0.991671 -0.557220 -0.000000 -0.000000 -0.000000 -2.921488 14.382249 6.387856 24.953398 -9.454929 0.750156 -18.221403 0.373046 -1.649178 0.000000 0.000000 0.000000 -0.000000 -0.000001 -0.000000 -2.146234 -7.262548 -3.839988 23.815913 -1.999190 -0.831890 -16.877300 -0.920335 4.977710 -0.000000 0.000000 -0.000000 0.000000 -0.000000 -0.000001 2.235059 -1.761848 -1.123775 2.351240 -0.247421 -0.265920 2.350828 -0.243990 -0.272596 2.458868 -0.634412 2.673761 -8.441591 -0.493364 0.576257 -0.000000 0.000000 0.000000 -0.000000 0.000000 0.000000 -0.000000 0.000000 0.000000 -0.000000 0.000000 -0.000000 -0.000000 0.000000 -0.000000 -0.000000 0.000000 -0.000000 -0.000000 0.000000 -0.000000 -0.000000 0.000000 0.000000 -0.000000 0.000000 0.000000 0.606910 0.047183 -10.277738 4.499528 -12.011054 -65.982578 0.000002 -31.988276 0.000023 3.286514 13.589976 -11.148988 1.006004 13.681129 -16.514609 -5.137341 2.946383 23.180410 0.000001 -0.000000 -0.000000 -0.937151 -0.052222 -28.112698 1.119595 3.768643 -33.081079 0.000000 0.000001 -0.000002 0.553288 2.724045 -25.573203 1.877778 4.730065 -43.286044 -0.000004 0.000000 0.000002 2.729511 6.694055 -28.878074 0.895015 3.399797 -29.489953 0.000003 0.000001 0.000000 4.539169 8.796743 -33.896450 0.570989 -1.322542 -23.803756 -0.000001 -0.000002 0.000001 0.000001 0.000000 0.000000 0.575362 3.081063 5.645572 5.506320 13.130116 70.883976 -0.000003 21.615585 -0.000000 12.860231 1.997022 16.860708 9.727547 -5.924616 2.847561 -10.425357 -23.991893 -5.887331 -0.000005 -0.000001 0.000001 -2.392925 6.461523 18.208094 0.349071 -2.179455 18.196888 -0.000000 0.000001 0.000004 -0.589464 0.511780 19.377284 0.997363 -3.593268 31.016596 -0.000001 -0.000002 0.000001 1.475939 -5.375561 19.250294 1.278923 -4.023646 35.253608 -0.000003 -0.000000 -0.000005 0.986203 -3.613513 26.749524 0.623425 -2.882440 24.403376 -0.000000 -0.000003 -0.000002 0.000003 0.000002 -0.000001 -0.000000 -0.000000 -0.000000 0.000000 -0.000000 -0.000000 -0.000000 -0.000000 -0.000000 -0.000000 -0.000000 -0.000000 -0.000000 -0.000000 -0.000000 0.000000 -0.000000 -0.000000 -0.000000 -0.000000 -0.000000 -0.000000 -0.000000 -0.000000 -0.000000 -0.000000 -0.000000 0.000000 -0.000000 -0.000000 -0.000000 -0.000000 -0.000000 -0.000000 -0.000000 -0.000000 -0.000000 -0.000000 -0.000000 
-1.410480 69.641403 6.961182 -4.598191 1.010977 -0.547843 0.000000 0.000000 -0.000000 -2.926794 14.379527 6.385528 24.981354 -9.460597 0.747646 -18.207172 0.370122 -1.641624 -0.000000 0.000000 -0.000000 0.000000 0.000001 -0.000000 -2.149992 -7.258341 -3.841133 23.851391 -2.016307 -0.844698 -16.873762 -0.921777 4.984102 -0.000000 0.000000 -0.000000 0.000000 -0.000000 -0.000000 2.221212 -1.765165 -1.117705 2.359030 -0.248025 -0.274267 2.358586 -0.244637 -0.280987 2.621603 -0.644994 2.652349 -7.286977 -0.529777 0.577221 0.000000 0.000000 0.000000 0.000000 0.000000 0.000000 0.000000 0.000000 0.000000 0.000000 0.000000 0.000000 0.000000 -0.000000 0.000000 0.000000 0.000000 0.000000 0.000000 -0.000000 0.000000 0.000000 0.000000 0.000000 0.000000 0.000000 0.000000 0.606323 -0.021592 -10.271301 4.465935 -11.887569 -66.023545 -0.000003 -31.950037 0.000002 3.286514 13.589990 -11.148978 1.014919 13.683890 -16.513589 -5.135859 2.947792 23.175151 0.000002 -0.000001 0.000001 -0.940059 -0.057804 -28.112499 1.119805 3.768956 -33.084258 0.000005 0.000001 -0.000002 0.550424 2.717969 -25.565828 1.878190 4.730515 -43.291163 -0.000001 0.000000 0.000002 2.727460 6.690695 -28.875861 0.895255 3.400229 -29.494085 -0.000001 0.000002 -0.000004 4.541866 8.801984 -33.889169 0.571173 -1.322124 -23.807499 -0.000001 -0.000003 0.000002 0.000002 -0.000000 0.000000 0.576060 3.097307 5.684953 5.589465 13.165225 70.799378 -0.000007 21.694347 0.000032 12.769355 1.969996 16.873545 9.721591 -5.915045 2.851916 -10.439093 -23.995711 -5.900704 -0.000000 -0.000001 0.000001 -2.393082 6.463652 18.205116 0.349063 -2.179453 18.196795 -0.000000 -0.000001 0.000002 -0.589516 0.510755 19.384992 0.997807 -3.593996 31.023751 -0.000000 0.000001 0.000003 1.479672 -5.384049 19.262107 1.278728 -4.023363 35.250753 0.000001 -0.000000 0.000001 0.989115 -3.619015 26.761673 0.623433 -2.882475 24.403733 -0.000002 -0.000003 -0.000002 0.000004 -0.000002 0.000000 -0.000000 0.000000 0.000000 -0.000000 0.000000 0.000000 -0.000000 0.000000 -0.000000 -0.000000 0.000000 -0.000000 -0.000000 0.000000 0.000000 -0.000000 0.000000 0.000000 -0.000000 0.000000 -0.000000 -0.000000 0.000000 -0.000000 -0.000000 0.000000 0.000000 -0.000000 0.000000 0.000000 0.000000 0.000000 -0.000000 0.000000 0.000000 -0.000000 0.000000 0.000000 -0.000000 
